<?xml version="1.0" encoding="UTF-8"?>
<svg id="Layer_2" data-name="Layer 2" xmlns="http://www.w3.org/2000/svg" xmlns:xlink="http://www.w3.org/1999/xlink" viewBox="0 0 410.1 516.44">
  <defs>
    <style>
      .cls-1 {
        fill: url(#linear-gradient);
        stroke-width: 0px;
      }
    </style>
    <linearGradient id="linear-gradient" x1="50.87" y1="492.84" x2="440.05" y2="103.65" gradientUnits="userSpaceOnUse">
      <stop offset="0" stop-color="#f0f"/>
      <stop offset=".78" stop-color="#80f"/>
    </linearGradient>
  </defs>
  <g id="Layer_1-2" data-name="Layer 1">
    <path class="cls-1" d="m410.1,395.85h-.06c-.93,19.05-6.22,37.97-15.35,54.83-8.47,15.74-20.46,29.74-34.64,40.5l-.96.75-.09.09c-2.61,1.98-5.26,3.82-7.93,5.47-18.3,11.72-39.47,18.21-61.25,18.87-20.46.51-40.5-3.82-58.46-12.68,22.26-20.91,38.18-48.46,45.12-78.26,1.65.51,3.36.84,5.05,1.08,9.43,1.2,18.66-1.35,26.05-7.27,5.95-4.78,10.21-11.51,11.96-18.81.45-1.8.75-3.73.93-5.77l.06-.42v-.84c-.06-.9-.06-1.8-.06-2.64V125.03c0-17.87-12.95-32.99-30.04-35.12-16.88-2.16-32.66,8.05-37.55,24.21-.54,1.89-.93,3.78-1.2,5.62-.15,1.41-.27,2.91-.27,4.42v266.59c0,39.11-18.69,76.55-49.99,100.22l-.69.45c-22.44,16.78-49.11,25.45-77.03,25.01C54.66,515.34,0,457.41,0,388.38v-115.13h0c49.48,0,89.58,40.11,89.58,89.58v26.88c0,18.63,13.49,34.43,31.39,36.77,10.3,1.29,20.76-1.89,28.54-8.74,7.81-6.85,12.29-16.7,12.29-27.01v-59.93c.09-1.02.12-2.1.12-3.18V126.8c0-30.4,9.94-59.3,28.06-81.35C212.79,17.69,246.01,1.1,280.95.08l1.26-.06c.99-.03,2.01-.03,3.03,0,68.37.09,124.01,55.79,124.01,124.13.21,220.42.57,262.83.84,271.7Z"/>
  </g>
</svg>